<svg width="500" height="500" viewBox="0 0 500 500" fill="none" xmlns="http://www.w3.org/2000/svg">
<g transform="translate(10, 220) scale(3)">
<path d="M148.079 5.62489C152.188 5.62489 154 7.16309 154 11.3563V14.4327C154 18.4573 152.715 20.3748 148.606 20.3748H143.928V22.3976H140.009V20.3748H135.331C131.222 20.3748 129.937 18.4573 129.937 14.4327V11.3563C129.937 7.16309 131.749 5.62489 135.858 5.62489H140.009V3.60205H143.928V5.62489H148.079ZM135.942 17.1509H140.009V8.84879H135.963C134.593 8.84879 133.982 9.24915 133.982 11.1456V14.6434C133.982 16.1816 134.488 17.1509 135.942 17.1509ZM149.954 14.6434V11.1456C149.954 9.24915 149.343 8.84879 147.974 8.84879H143.928V17.1509H147.995C149.449 17.1509 149.954 16.1816 149.954 14.6434Z" fill="#003482"/>
<path d="M127.337 8.82766C127.442 9.39659 127.484 10.5555 127.484 11.2719C127.484 11.9884 127.463 13.0841 127.358 13.6951C126.979 16.1183 125.735 17.1508 122.469 17.1508H114.315V20.3536H110.396V5.60376H122.469C125.398 5.60376 126.873 6.48875 127.337 8.82766ZM123.439 12.3887V10.1762C123.439 9.43873 122.849 8.82766 122.111 8.82766H114.315V13.7162H122.111C122.849 13.7162 123.439 13.1262 123.439 12.3887Z" fill="#003482"/>
<path d="M99.5214 5.62476V8.84866H92.9472V20.3746H89.0068V8.84866H82.4326V5.62476H99.5214Z" fill="#0A5AD1"/>
<path d="M73.8839 5.62476H80.2685V20.3536H76.3071V9.0383L69.6275 20.3536H63.1797V5.62476H67.1411V16.94L73.8839 5.62476Z" fill="#0A5AD1"/>
<path d="M60.2636 8.82766C60.3689 9.39659 60.4111 10.5555 60.4111 11.2719C60.4111 11.9884 60.39 13.0841 60.2846 13.6951C59.9053 16.1183 58.6621 17.1508 55.3961 17.1508H47.2415V20.3536H43.3223V5.60376H55.3961C58.325 5.60376 59.8 6.48875 60.2636 8.82766ZM56.3654 12.3887V10.1762C56.3654 9.43873 55.7754 8.82766 55.0379 8.82766H47.2415V13.7162H55.0379C55.7754 13.7162 56.3654 13.1262 56.3654 12.3887Z" fill="#0A5AD1"/>
<path d="M41.1435 5.62476V8.84866H34.5692V20.3746H30.6289V8.84866H24.0547V5.62476H41.1435Z" fill="#0A5AD1"/>
<path d="M10.3942 5.60376H22.0888V10.9137H18.1485V8.82766H11.0053C9.55139 8.82766 9.04568 9.79694 9.04568 11.3562V14.833C9.04568 16.7505 9.65675 17.1297 11.0264 17.1297H18.1485V15.0437H22.0888V20.3536H10.921C6.81213 20.3536 5 18.8154 5 14.6433V11.5459C5 7.52124 6.28535 5.60376 10.3942 5.60376Z" fill="#0A5AD1"/>
<path d="M105.043 11.6312C104.158 11.6312 103.414 11.3387 102.81 10.7562C102.203 10.1737 101.9 9.42169 101.9 8.50251C101.9 7.58333 102.203 6.84356 102.81 6.28566C103.611 5.54589 104.655 5.29521 105.947 5.53606C107.391 6.09642 108.11 7.08687 108.11 8.50251C108.11 9.42169 107.808 10.1737 107.201 10.7562C106.594 11.3412 105.877 11.6312 105.043 11.6312Z" fill="#003482"/>

</g>
</svg>