<svg width="120" height="120" viewBox="0 0 120 120" xmlns="http://www.w3.org/2000/svg">
  <!-- Чёрный фон -->
  <rect width="120" height="120" fill="#000000"/>

  <!-- Исходная надпись, размещённая по центру -->
  <g transform="translate(3.5, 51)">
    <g clip-path="url(#clip0_781_2481)">
      <path fill-rule="evenodd" clip-rule="evenodd" d="M50.1902 1.953H45.3142L38.4043 17.6313H42.6424L43.8848 14.6916H50.7045L51.8601 17.6313H56.4689L50.1902 1.953ZM49.4822 11.2261H45.3142L47.5051 6.10475L49.4822 11.2261Z" fill="#FAF9F9"/>
      <mask id="mask0_781_2481" style="mask-type:luminance" maskUnits="userSpaceOnUse" x="-1" y="-1" width="115" height="20">
        <path d="M113.151 -0.218506H-0.106445V18.2629H113.151V-0.218506Z" fill="white"/>
      </mask>
      <g mask="url(#mask0_781_2481)">
        <path fill-rule="evenodd" clip-rule="evenodd" d="M111.05 0C111.386 0.00155561 111.716 0.0908783 112.008 0.259484C112.318 0.425989 112.572 0.682626 112.74 0.996965C112.911 1.30248 113.001 1.64862 113 2.00076C112.999 2.3486 112.912 2.69053 112.746 2.99431C112.578 3.30634 112.327 3.56323 112.022 3.7352C111.725 3.9076 111.389 3.99824 111.048 3.99824C110.707 3.99824 110.371 3.9076 110.074 3.7352C109.769 3.56323 109.518 3.30634 109.35 2.99431C109.185 2.69057 109.1 2.34823 109.103 2.00076C109.105 1.64854 109.196 1.30281 109.366 0.996965C109.535 0.684087 109.79 0.427943 110.098 0.259484C110.393 0.0911577 110.725 0.00189468 111.063 0M111.063 0.341426C110.781 0.342561 110.504 0.416557 110.258 0.556525C110.002 0.6983 109.79 0.912911 109.65 1.17451C109.508 1.4275 109.433 1.71414 109.433 2.00588C109.433 2.29762 109.508 2.58426 109.65 2.83725C109.791 3.09723 110.001 3.31141 110.255 3.45524C110.503 3.59927 110.784 3.67568 111.07 3.67716C111.353 3.67589 111.632 3.59943 111.878 3.45524C112.134 3.31438 112.345 3.09945 112.482 2.83725C112.626 2.58471 112.701 2.29789 112.701 2.00588C112.701 1.71387 112.626 1.42705 112.482 1.17451C112.341 0.91267 112.129 0.698089 111.871 0.556525C111.627 0.417667 111.353 0.343707 111.073 0.341426M110.215 3.11381V0.95258H110.936C111.117 0.943994 111.299 0.964735 111.474 1.01404C111.579 1.05374 111.67 1.12478 111.735 1.21794C111.799 1.3111 111.835 1.42206 111.838 1.53642C111.838 1.61312 111.823 1.68908 111.795 1.75997C111.766 1.83085 111.724 1.89527 111.671 1.94954C111.553 2.06727 111.398 2.13656 111.233 2.14416C111.3 2.16947 111.361 2.20773 111.414 2.25683C111.532 2.38731 111.636 2.53039 111.724 2.68361L111.981 3.10357H111.567L111.38 2.76214C111.293 2.57517 111.173 2.40619 111.026 2.26366C110.946 2.20775 110.849 2.18127 110.752 2.18854H110.552V3.10357L110.215 3.11381ZM110.549 1.90516H110.96C111.1 1.91999 111.241 1.88891 111.364 1.81639C111.399 1.78778 111.428 1.75089 111.447 1.70875C111.466 1.66661 111.476 1.62042 111.474 1.57398C111.474 1.51386 111.455 1.45534 111.42 1.40668C111.385 1.35477 111.335 1.31538 111.277 1.29401C111.168 1.26236 111.055 1.24966 110.943 1.25645H110.555L110.549 1.90516Z" fill="#FAF9F9"/>
        <path fill-rule="evenodd" clip-rule="evenodd" d="M100.786 1.58765C103.381 1.58765 105.462 2.15441 107.132 3.29478C109.229 4.75267 110.194 6.77391 110.194 9.80578C110.194 12.8376 109.229 14.8589 107.132 16.3168C105.462 17.4469 103.351 18.0239 100.813 18.0239C98.2182 18.0239 96.1208 17.4571 94.4677 16.3168C92.2868 14.8145 91.3784 12.8376 91.3784 9.6658C91.3784 6.77391 92.397 4.70487 94.4677 3.29478C96.1375 2.16807 98.2215 1.58765 100.786 1.58765ZM100.786 5.05995C97.6671 5.05995 95.5999 6.92073 95.5999 9.75115C95.5999 12.6874 97.6037 14.5482 100.786 14.5482C103.969 14.5482 105.976 12.6874 105.976 9.79212C105.976 6.89683 103.939 5.05995 100.786 5.05995Z" fill="#FAF9F9"/>
        <path fill-rule="evenodd" clip-rule="evenodd" d="M79.4053 5.44909H84.6721C86.7427 5.68809 86.5891 8.3956 84.7188 8.52193H79.4053V5.44909ZM84.8758 1.95288C88.1087 1.95288 89.9956 4.25068 90.029 6.68505C90.029 10.0788 88.4627 11.6801 85.7241 11.9362L90.5133 17.6346H85.8844L81.2155 12.0728H79.3786V17.6346H75.3008V1.95288H84.8758Z" fill="#FAF9F9"/>
        <path fill-rule="evenodd" clip-rule="evenodd" d="M61.7217 8.89408L68.5247 1.9563H73.5143L67.0886 8.45023L73.7514 17.6346H68.8286L64.2632 11.2977L61.7183 13.8311V17.6346H57.5737V1.95288H61.715L61.7217 8.89408Z" fill="#FAF9F9"/>
        <path fill-rule="evenodd" clip-rule="evenodd" d="M30.7491 8.55948V5.43885H40.8017V1.95288H26.541V17.6346H30.7491V11.9669H37.6089V8.55948H30.7491Z" fill="#FAF9F9"/>
        <path fill-rule="evenodd" clip-rule="evenodd" d="M23.111 1.94604H8.85698L0 17.6346H14.254L23.111 1.94604Z" fill="#FAF9F9"/>
      </g>
    </g>
    <defs>
      <clipPath id="clip0_781_2481">
        <rect width="113" height="18" fill="white"/>
      </clipPath>
    </defs>
  </g>
</svg>
