<svg width="412" height="412" viewBox="0 0 412 412" fill="#6FC4DF" xmlns="http://www.w3.org/2000/svg">  
  <g transform="translate(10, 120) scale(2.7)">
    <path d="m31.93 19.582-8.084 2.052.482 26.669h5.43l2.173-28.721ZM8.23 48.187l-3.865-.002-2.426-.002.053-5.047 6.24.004c1.94.001 2.194-.355 3.355-1.067 1.161-.729 1.999-1.839 2.514-3.33.514-1.492.773-3.398.774-5.718l.004-5.893c.001-1.79-.147-3.315-.444-4.575-.281-1.276-.728-2.313-1.34-3.109a5.213 5.213 0 0 0-2.362-1.791c-.977-.399-.858-.598-2.234-.599l-6.663-.004.003-5.072 2.55.001 4.113.003c.594 0 2.65.333 4.323.998a11.568 11.568 0 0 1 4.3 2.936c1.209 1.278 2.136 2.861 2.78 4.751.646 1.89.968 4.062.966 6.515l-.004 5.843c-.001 2.453-.326 4.624-.974 6.513-.647 1.873-1.577 3.455-2.788 4.747-1.21 1.276-2.67 2.245-4.378 2.907-1.707.662-2.343.993-4.498.991ZM6.445 11.985l-.137 36.2-4.494-.002L.025 11.98l6.421.005Z" fill="#6FC4DF"/>
    <path d="M19.984 15.698v-3.874c24.639-.66 35.452-3.577 38.013-4.953l-1.524 5.779-12.954 2.222-4.71 33.431h-4.344l2.322-32.605s-5.16.51-8.476.506c-3.258-.004-8.327-.506-8.327-.506Z" fill="#6FC4DF"/>
    <circle cx="27.849" cy="4.318" r="4.318" fill="#6FC4DF"/>
    <path d="M57.598 29.602v-3.72h.646c.726 0 .95-.502 1.003-1.254l.475-6.24h6.148v7.494h1.187v3.72H65.21l-.132-1.979h-5.501l-.132 1.979h-1.847Zm3.562-5.04c-.053.647-.158.977-.475 1.32h3.206V20.13H61.49l-.33 4.432Zm7.576-6.174h1.978v3.654h3.8v-3.654h1.979v9.235h-1.98v-3.839h-3.799v3.839h-1.978v-9.235Zm9.92 9.235v-9.235h6.121v1.742h-4.142v1.913h3.298v1.741h-3.298v2.098h4.3v1.741h-6.28Zm11.89 0h-3.8v-9.235h3.695c1.675 0 2.928.845 2.928 2.375 0 .884-.409 1.623-1.213 1.952.976.317 1.688.95 1.688 2.204 0 1.715-1.345 2.704-3.298 2.704Zm-.317-3.865h-1.504v2.176h1.504c1.095 0 1.584-.343 1.584-1.095s-.489-1.081-1.584-1.081Zm-.132-3.681h-1.371v1.992h1.358c.897 0 1.293-.383 1.293-1.003 0-.62-.382-.99-1.28-.99Zm5.359-1.689h1.979v3.654h3.799v-3.654h1.979v9.235h-1.979v-3.839h-3.8v3.839h-1.978v-9.235Zm11.899 9.235h-1.979v-9.235h1.979v5.304l3.799-3.853v-1.45h1.979v9.234h-1.979V22.32l-2.717 2.757c-.792.791-1.082 1.293-1.082 2.546Zm7.941 0v-9.235h1.979v3.654h1.201l2.243-3.654h2.216v.053l-2.863 4.538 1.056 1.53c.408.607.883 1.293 1.662 1.293.105 0 .211-.013.303-.026v1.887a3.154 3.154 0 0 1-.752.092c-1.517 0-2.335-1.267-3.126-2.533l-.884-1.438h-1.056v3.839h-1.979ZM59.468 42.275h-1.913v-.395c0-1.913.7-4.09 1.451-5.844L60.3 33.04h2.599l1.293 2.995c.883 2.057 1.45 3.93 1.45 5.844v.395h-1.978v-.395c0-.554-.053-1.095-.158-1.623h-3.879a9.39 9.39 0 0 0-.158 1.623v.395Zm.633-3.76h2.942a18.79 18.79 0 0 0-.646-1.78l-.792-1.847h-.053l-.791 1.847c-.264.62-.422 1.081-.66 1.78Zm7.155-5.474h1.979v5.303l3.799-3.852v-1.451h1.979v9.234h-1.98v-5.303l-2.717 2.757c-.791.792-1.081 1.293-1.081 2.546h-1.98v-9.234Zm1.53-2.836h1.517c.04.501.37.791.831.791.462 0 .792-.29.831-.791h1.517c-.066 1.227-.963 1.979-2.348 1.979-1.385 0-2.282-.752-2.348-1.98Zm7.44 4.683V33.04h7.255v1.847h-2.638v7.387h-1.979v-7.387h-2.638Zm10.452 7.387h-1.979v-9.234h1.979v5.303l3.8-3.852v-1.451h1.978v9.234h-1.979v-5.303L87.76 39.73c-.792.792-1.082 1.293-1.082 2.546Zm7.94 0v-9.234h1.98v7.493h2.506v-7.493h1.979v7.493h2.506v-7.493h1.979v9.234h-10.95Zm13.115-9.234h1.979v3.654h3.8v-3.654h1.978v9.234h-1.978v-3.838h-3.8v3.838h-1.979v-9.234Zm11.899 9.234h-1.979v-9.234h1.979v5.303l3.799-3.852v-1.451h1.979v9.234h-1.979v-5.303l-2.717 2.757c-.792.792-1.082 1.293-1.082 2.546Zm7.941 0v-9.234h1.979v3.654h1.2l2.243-3.654h2.216v.053l-2.863 4.538 1.056 1.53c.409.607.884 1.293 1.662 1.293.106 0 .211-.013.303-.026v1.886a3.153 3.153 0 0 1-.752.092c-1.517 0-2.335-1.266-3.126-2.532l-.884-1.438h-1.055v3.838h-1.979Zm10.634 0h-1.913v-.395c0-1.913.7-4.09 1.452-5.844l1.292-2.995h2.599l1.293 2.995c.884 2.057 1.451 3.93 1.451 5.844v.395h-1.979v-.395a8.22 8.22 0 0 0-.158-1.623h-3.878a9.332 9.332 0 0 0-.159 1.623v.395Zm.634-3.76h2.941a18.518 18.518 0 0 0-.646-1.78l-.792-1.847h-.052l-.792 1.847c-.264.62-.422 1.081-.659 1.78Z" fill="#6FC4DF"/>
  </g>
</svg>
